<svg xmlns="http://www.w3.org/2000/svg" viewBox="0 0 1200 680" font-family="'Segoe UI', Helvetica, Arial, sans-serif">
<defs>
<filter id="sh" x="-20%" y="-20%" width="140%" height="140%"><feDropShadow dx="0" dy="1.5" stdDeviation="2.5" flood-color="#0f172a" flood-opacity="0.13"/></filter>
<marker id="a" markerWidth="10" markerHeight="10" refX="7.5" refY="3" orient="auto"><path d="M0,0 L7.5,3 L0,6 z" fill="#475569"/></marker>
<marker id="ad" markerWidth="10" markerHeight="10" refX="7.5" refY="3" orient="auto"><path d="M0,0 L7.5,3 L0,6 z" fill="#94a3b8"/></marker>
</defs>
<rect width="1200" height="680" fill="#ffffff"/>
<rect x="40" y="250" width="214" height="118" rx="11" fill="#ffffff" stroke="#cbd5e1" filter="url(#sh)"/>
<g transform="translate(60.0,273.0) scale(1.9167)" fill="#4285F4"><path d="M12 0C8.21 0 4.831 1.757 2.632 4.501l3.953 6.848A5.454 5.454 0 0 1 12 6.545h10.691A12 12 0 0 0 12 0zM1.931 5.47A11.943 11.943 0 0 0 0 12c0 6.012 4.42 10.991 10.189 11.864l3.953-6.847a5.45 5.45 0 0 1-6.865-2.29zm13.342 2.166a5.446 5.446 0 0 1 1.45 7.09l.002.001h-.002l-5.344 9.257c.206.01.413.016.621.016 6.627 0 12-5.373 12-12 0-1.54-.29-3.011-.818-4.364zM12 16.364a4.364 4.364 0 1 1 0-8.728 4.364 4.364 0 0 1 0 8.728Z"/></g>
<text x="118" y="298" font-size="18" font-weight="700" fill="#0f172a">Web Browser</text>
<text x="60" y="339" font-size="13" fill="#475569">Thymeleaf · jQuery</text>
<text x="60" y="358" font-size="13" fill="#475569">Bootstrap · SockJS</text>
<g transform="translate(96.0,430.0) scale(1.6667)" fill="#334155"><path d="M11.9362.0137a12.1694 12.1694 0 00-2.9748.378C4.2816 1.5547.5678 5.7944.0918 10.6012c-.59 4.5488 1.7079 9.2856 5.6437 11.6345 3.8608 2.4179 9.0926 2.3199 12.8734-.223 3.3969-2.206 5.5118-6.2277 5.3858-10.2845-.058-4.0159-2.31-7.9167-5.7588-9.9796C16.354.5876 14.1431.0047 11.9362.0137zm-.063 1.696c4.9448-.007 9.7886 3.8137 10.2815 8.9245.945 5.6597-3.7528 11.4125-9.4875 11.5795-5.4538.544-10.7245-4.0798-10.8795-9.5566-.407-4.4338 2.5159-8.8346 6.6977-10.2995a9.1126 9.1126 0 013.3878-.647zm5.0908 3.2248c-2.6869 2.0849-5.2598 4.3078-7.8886 6.4567 1.2029.017 2.4118.016 3.6208.01 1.41-2.165 2.8589-4.3008 4.2678-6.4667zm-5.6647 7.6536c-1.41 2.166-2.86 4.3088-4.2699 6.4737 2.693-2.0799 5.2548-4.3198 7.9017-6.4557a255.4132 255.4132 0 00-3.6318-.018z"/></g>
<text x="116" y="495" text-anchor="middle" font-size="13" font-weight="700" fill="#334155">WebSocket</text>
<text x="116" y="512" text-anchor="middle" font-size="12" fill="#64748b">STOMP</text>
<rect x="330" y="70" width="472" height="532" rx="13" fill="#ffffff" stroke="#cbd5e1" stroke-width="1.5" filter="url(#sh)"/>
<g transform="translate(352.0,83.0) scale(1.5000)" fill="#6DB33F"><path d="m23.693 10.7058-4.73-8.1844c-.4094-.7106-1.4166-1.2942-2.2402-1.2942H7.2725c-.819 0-1.8308.5836-2.2402 1.2942L.307 10.7058c-.4095.7106-.4095 1.873 0 2.5837l4.7252 8.189c.4094.7107 1.4166 1.2943 2.2402 1.2943h9.455c.819 0 1.826-.5836 2.2402-1.2942l4.7252-8.189c.4095-.7107.4095-1.8732 0-2.5838zM10.9763 5.7547c0-.5365.4377-.9742.9742-.9742s.9742.4377.9742.9742v5.8217c0 .5366-.4377.9742-.9742.9742s-.9742-.4376-.9742-.9742zm.9742 12.4294c-3.6427 0-6.6077-2.965-6.6077-6.6077.0047-2.0896.993-4.0521 2.6685-5.304a.8657.8657 0 0 1 1.2142.1788.8657.8657 0 0 1-.1788 1.2143c-2.1602 1.6048-2.612 4.6592-1.0072 6.8194 1.6049 2.1603 4.6593 2.612 6.8195 1.0072 1.2378-.9177 1.9673-2.372 1.9673-3.9157a4.8972 4.8972 0 0 0-1.9861-3.925c-.386-.2824-.466-.8284-.1836-1.2143.2824-.386.8283-.466 1.2143-.1835 1.6895 1.2471 2.6826 3.2238 2.6873 5.3228 0 3.6474-2.965 6.6077-6.6077 6.6077z"/></g>
<g transform="translate(394.0,87.0) scale(1.1667)" fill="#5382A1"><path d="M11.915 0 11.7.215C9.515 2.4 7.47 6.39 6.046 10.483c-1.064 1.024-3.633 2.81-3.711 3.551-.093.87 1.746 2.611 1.55 3.235-.198.625-1.304 1.408-1.014 1.939.1.188.823.011 1.277-.491a13.389 13.389 0 0 0-.017 2.14c.076.906.27 1.668.643 2.232.372.563.956.911 1.667.911.397 0 .727-.114 1.024-.264.298-.149.571-.33.91-.5.68-.34 1.634-.666 3.53-.604 1.903.062 2.872.39 3.559.704.687.314 1.15.664 1.925.664.767 0 1.395-.336 1.807-.9.412-.563.631-1.33.72-2.24.06-.623.055-1.32 0-2.066.454.45 1.117.604 1.213.424.29-.53-.816-1.314-1.013-1.937-.198-.624 1.642-2.366 1.549-3.236-.08-.748-2.707-2.568-3.748-3.586C16.428 6.374 14.308 2.394 12.13.215zm.175 6.038a2.95 2.95 0 0 1 2.943 2.942 2.95 2.95 0 0 1-2.943 2.943A2.95 2.95 0 0 1 9.148 8.98a2.95 2.95 0 0 1 2.942-2.942zM8.685 7.983a3.515 3.515 0 0 0-.145.997c0 1.951 1.6 3.55 3.55 3.55 1.95 0 3.55-1.598 3.55-3.55 0-.329-.046-.648-.132-.951.334.095.64.208.915.336a42.699 42.699 0 0 1 2.042 5.829c.678 2.545 1.01 4.92.846 6.607-.082.844-.29 1.51-.606 1.94-.315.431-.713.651-1.315.651-.593 0-.932-.27-1.673-.61-.741-.338-1.825-.694-3.792-.758-1.974-.064-3.073.293-3.821.669-.375.188-.659.373-.911.5s-.466.2-.752.2c-.53 0-.876-.209-1.16-.64-.285-.43-.474-1.101-.545-1.948-.141-1.693.176-4.069.823-6.614a43.155 43.155 0 0 1 1.934-5.783c.348-.167.749-.31 1.192-.425zm-3.382 4.362a.216.216 0 0 1 .13.031c-.166.56-.323 1.116-.463 1.665a33.849 33.849 0 0 0-.547 2.555 3.9 3.9 0 0 0-.2-.39c-.58-1.012-.914-1.642-1.16-2.08.315-.24 1.679-1.755 2.24-1.781zm13.394.01c.562.027 1.926 1.543 2.24 1.783-.246.438-.58 1.068-1.16 2.08a4.428 4.428 0 0 0-.163.309 32.354 32.354 0 0 0-.562-2.49 40.579 40.579 0 0 0-.482-1.652.216.216 0 0 1 .127-.03z"/></g>
<g transform="translate(428.0,87.0) scale(1.1667)" fill="#C8911B"><path d="M12.66 3.494c-.377.637-.544 2.114-.502 3.162l-.005.004c.036.946.165 1.816.372 2.615-3.096.767-6.466 2.795-8.352 4.754-.882-1.19-1.232-2.168-1.336-2.908-.131-.936.092-1.794.646-2.482.867-1.077 2.098-1.153 3.365-.94-.025.2.001.391.081.51.335.494 2.135.668 3.21.189-.793-1.112-2.4-1.654-2.844-1.437a.762.762 0 00-.335.359c-.438-.078-.873-.137-1.19-.134-1.117.008-1.971.398-2.61 1.193-.628.78-.882 1.747-.734 2.8.14.996.633 2.055 1.46 3.154-.138.147-.27.293-.398.436C1.473 17.023 0 19.44 0 19.842v.207h2.658l-.046-.246c-.15-.793.15-1.785.763-2.526.386-.465 1.024-.996 2.027-1.241.891.87 2.027 1.794 3.291 2.685h1.976v-.208a.678.678 0 00-.327-.577c-.312-.204-.794-.232-1.237-.081-.421-.47-.658-1.098-.709-1.877 4.287.38 8.388 2.11 13.015 4.528h2.546l.033-.167c.048-.237-.082-.556-.346-.851-.456-.51-1.349-.752-2.095-.734-.514-.612-3.342-3.591-3.507-3.765a9.626 9.626 0 002.673-2.847h1.388v-.298H20.89a9.81 9.81 0 00.223-.419h.989v-.299h-.845c.628-1.359.975-2.918.942-4.625l.003.002c-.002-.468-.147-2.445-.415-2.989-.726.276-2.047 1.17-2.346 2.084a14.557 14.557 0 00-4.463.056c-.237-.984-1.423-1.736-2.318-2.16zm.164.577c.211 1.148.593 1.869 1.42 2.223.734-.21 1.58-.34 2.448-.388l.717 1.571.46-1.585c.876.029 1.736.142 2.485.349.762-.554 1.057-1.4 1.218-2.138.202.86.178 2.717.18 2.717a9.883 9.883 0 01-.158 1.988l-.824.35.726.11a9.19 9.19 0 01-.198.714l-.703.205.56.201c-.094.253-.2.5-.314.738h-1.16v.299h1.008a8.788 8.788 0 01-.238.419h-.77v.298h.583a8.634 8.634 0 01-2.921 2.748c-1.334-.664-2.341-1.634-3.079-2.748h.446v-.298h-.636a9.195 9.195 0 01-.236-.419h.872v-.299h-1.026a10.12 10.12 0 01-.46-1.094l.522-.147-.659-.263c-.066-.215-.127-.43-.18-.646l1.015-.069-1.16-.615c-.282-1.563-.225-3.08.062-4.221zm2.946 2.97c-.89 0-1.24.909-1.255.948l.252.094c.012-.033.302-.773 1.003-.773.154 0 .262.062.34.195.182.314.152.933 0 1.58h-1.227v.269h1.159a5.679 5.679 0 01-.496 1.225l-.064.112 1.537.967-.865.57.148.224.967-.637 1.043.681.143-.228-.967-.598 1.518-.986v-.001c-.318-.47-.42-.872-.286-1.329h.108l1.167-.001.002-.268h-1.175c.216-.51.52-.968 1.602-.968v-.27c-.999 0-1.596.397-1.883 1.238h-2.154c.15-.672.177-1.333-.046-1.715a.63.63 0 00-.57-.33zm.55 2.313h2.126c-.095.304-.057.763.178 1.157h-2.737c.166-.334.32-.74.433-1.157zm-3.683.321c.155.515.344.997.562 1.451h-.91v.299h1.06c.075.142.153.282.233.419H12.29v.298h1.478c.91 1.416 2.14 2.499 3.534 3.318a9.45 9.45 0 00.456-.28l.362.39-.61.938 1.04-.474.606.652-1.019.776 1.403-.363 1.905 2.05.16-.014c1.007-.086 1.58.46 1.73.63.112.124.179.237.215.326h-2.036c-4.67-2.437-8.771-4.155-13.127-4.53.01-.607.117-1.293.324-2.058l-.4-.108c-.213.786-.325 1.497-.338 2.134-.454-.03-.91-.046-1.371-.046-.391 0-.747.036-1.072.1a14.771 14.771 0 01-1.09-1.21c.546-.57 1.19-1.123 1.893-1.643l.967.668-.316-1.128c.297-.2.603-.394.914-.58l1.434.73-.673-1.162c.198-.106.398-.21.598-.31l2.007 1.346-.66-1.952a15.32 15.32 0 012.034-.667zm3.492 1.105h2.22l-1.084.715zM4.153 14.675c.273.337.577.678.91 1.021a4.104 4.104 0 00-2.007 1.316c-.629.76-.962 1.762-.886 2.622H.495c.337-.728 1.677-2.833 3.658-4.959z"/></g>
<text x="468" y="101" font-size="18.5" font-weight="700" fill="#0f172a">Spring Boot Application</text>
<text x="468" y="121" font-size="12.5" fill="#64748b">Embedded Tomcat · :9091</text>
<line x1="352" y1="136" x2="780" y2="136" stroke="#eef2f6" stroke-width="1.5"/>
<rect x="356" y="152" width="420" height="86" rx="9" fill="#ffffff" stroke="#cbd5e1" filter="url(#sh)"/>
<rect x="356" y="152" width="4.5" height="86" rx="2" fill="#6DB33F"/>
<g transform="translate(371.0,179.0) scale(1.3333)" fill="#6DB33F"><path d="M20.59 2.066 11.993 0 3.41 2.066v6.612h4.557a3.804 3.804 0 0 0 0 .954H3.41v3.106C3.41 19.867 11.994 24 11.994 24s8.582-4.133 8.582-11.258V9.635h-4.545a3.616 3.616 0 0 0 0-.954h4.558zM12 12.262h-.006a3.109 3.109 0 1 1 .006 0zm-.006-4.579a.804.804 0 0 0-.37 1.52v.208l.238.237v.159l.159.159v.159l-.14.14.15.246v.159l-.16.189.223.222.246-.246V9.218a.804.804 0 0 0-.346-1.535zm0 .836a.299.299 0 1 1 .298-.299.299.299 0 0 1-.298.3z"/></g>
<text x="416" y="191" font-size="17" font-weight="700" fill="#0f172a">Spring Security</text>
<text x="416" y="212" font-size="13" fill="#475569">Session → SecurityContext · 경로 인가</text>
<rect x="356" y="262" width="420" height="86" rx="9" fill="#ffffff" stroke="#cbd5e1" filter="url(#sh)"/>
<rect x="356" y="262" width="4.5" height="86" rx="2" fill="#6DB33F"/>
<g transform="translate(371.0,289.0) scale(1.3333)" fill="#6DB33F"><path d="m23.693 10.7058-4.73-8.1844c-.4094-.7106-1.4166-1.2942-2.2402-1.2942H7.2725c-.819 0-1.8308.5836-2.2402 1.2942L.307 10.7058c-.4095.7106-.4095 1.873 0 2.5837l4.7252 8.189c.4094.7107 1.4166 1.2943 2.2402 1.2943h9.455c.819 0 1.826-.5836 2.2402-1.2942l4.7252-8.189c.4095-.7107.4095-1.8732 0-2.5838zM10.9763 5.7547c0-.5365.4377-.9742.9742-.9742s.9742.4377.9742.9742v5.8217c0 .5366-.4377.9742-.9742.9742s-.9742-.4376-.9742-.9742zm.9742 12.4294c-3.6427 0-6.6077-2.965-6.6077-6.6077.0047-2.0896.993-4.0521 2.6685-5.304a.8657.8657 0 0 1 1.2142.1788.8657.8657 0 0 1-.1788 1.2143c-2.1602 1.6048-2.612 4.6592-1.0072 6.8194 1.6049 2.1603 4.6593 2.612 6.8195 1.0072 1.2378-.9177 1.9673-2.372 1.9673-3.9157a4.8972 4.8972 0 0 0-1.9861-3.925c-.386-.2824-.466-.8284-.1836-1.2143.2824-.386.8283-.466 1.2143-.1835 1.6895 1.2471 2.6826 3.2238 2.6873 5.3228 0 3.6474-2.965 6.6077-6.6077 6.6077z"/></g>
<text x="416" y="301" font-size="17" font-weight="700" fill="#0f172a">Controller</text>
<text x="416" y="322" font-size="13" fill="#475569">Member · Board · Order · Event · Chat · Team</text>
<rect x="356" y="372" width="420" height="86" rx="9" fill="#ffffff" stroke="#cbd5e1" filter="url(#sh)"/>
<rect x="356" y="372" width="4.5" height="86" rx="2" fill="#6DB33F"/>
<g transform="translate(371.0,399.0) scale(1.3333)" fill="#6DB33F"><path d="m23.693 10.7058-4.73-8.1844c-.4094-.7106-1.4166-1.2942-2.2402-1.2942H7.2725c-.819 0-1.8308.5836-2.2402 1.2942L.307 10.7058c-.4095.7106-.4095 1.873 0 2.5837l4.7252 8.189c.4094.7107 1.4166 1.2943 2.2402 1.2943h9.455c.819 0 1.826-.5836 2.2402-1.2942l4.7252-8.189c.4095-.7107.4095-1.8732 0-2.5838zM10.9763 5.7547c0-.5365.4377-.9742.9742-.9742s.9742.4377.9742.9742v5.8217c0 .5366-.4377.9742-.9742.9742s-.9742-.4376-.9742-.9742zm.9742 12.4294c-3.6427 0-6.6077-2.965-6.6077-6.6077.0047-2.0896.993-4.0521 2.6685-5.304a.8657.8657 0 0 1 1.2142.1788.8657.8657 0 0 1-.1788 1.2143c-2.1602 1.6048-2.612 4.6592-1.0072 6.8194 1.6049 2.1603 4.6593 2.612 6.8195 1.0072 1.2378-.9177 1.9673-2.372 1.9673-3.9157a4.8972 4.8972 0 0 0-1.9861-3.925c-.386-.2824-.466-.8284-.1836-1.2143.2824-.386.8283-.466 1.2143-.1835 1.6895 1.2471 2.6826 3.2238 2.6873 5.3228 0 3.6474-2.965 6.6077-6.6077 6.6077z"/></g>
<text x="416" y="411" font-size="17" font-weight="700" fill="#0f172a">Service</text>
<text x="416" y="432" font-size="13" fill="#475569">@Transactional · 비즈니스 로직</text>
<rect x="356" y="482" width="420" height="86" rx="9" fill="#ffffff" stroke="#cbd5e1" filter="url(#sh)"/>
<rect x="356" y="482" width="4.5" height="86" rx="2" fill="#6DB33F"/>
<g transform="translate(371.0,509.0) scale(1.3333)" fill="#59666C"><path d="M5.365 0L9.98 7.994h8.95L14.31 0H5.366zm-.431.248L.46 7.994l4.613 8.008L9.55 8.24 4.934.248zm13.992 7.75l-4.475 7.76 4.617 7.992 4.471-7.744-4.613-8.008zm-4.905 8.006l-8.95.002L9.688 24h8.946l-4.615-7.994.001-.002Z"/></g>
<text x="416" y="521" font-size="17" font-weight="700" fill="#0f172a">Repository</text>
<text x="416" y="542" font-size="13" fill="#475569">Spring Data JPA</text>
<rect x="876" y="120" width="304" height="234" rx="11" fill="#f8fafc" stroke="#cbd5e1" stroke-dasharray="6 4"/>
<g transform="translate(896.0,149.0) scale(1.0000)" fill="#FF9800"><path d="M11.996 0a1.639 1.639 0 0 0-.82.22L3.344 4.74a1.648 1.648 0 0 0-.535.498l9.136 5.28 9.213-5.32a1.652 1.652 0 0 0-.51-.458L12.818.22a1.639 1.639 0 0 0-.822-.22zm9.336 5.5l-9.387 5.422-9.3-5.373a1.648 1.648 0 0 0-.12.615v9.043a1.643 1.643 0 0 0 .819 1.42l3.918 2.266v4.617a.493.493 0 0 0 .74.424l12.654-7.303a1.639 1.639 0 0 0 .819-1.42V6.162a1.652 1.652 0 0 0-.143-.662z"/></g>
<text x="928" y="167" font-size="15.5" font-weight="700" fill="#334155">External APIs</text>
<rect x="894" y="186" width="268" height="52" rx="9" fill="#ffffff" stroke="#cbd5e1" filter="url(#sh)"/>
<rect x="894" y="186" width="4.5" height="52" rx="2" fill="#FF9800"/>
<g transform="translate(909.0,196.0) scale(1.3333)" fill="#FF9800"><path d="M11.996 0a1.639 1.639 0 0 0-.82.22L3.344 4.74a1.648 1.648 0 0 0-.535.498l9.136 5.28 9.213-5.32a1.652 1.652 0 0 0-.51-.458L12.818.22a1.639 1.639 0 0 0-.822-.22zm9.336 5.5l-9.387 5.422-9.3-5.373a1.648 1.648 0 0 0-.12.615v9.043a1.643 1.643 0 0 0 .819 1.42l3.918 2.266v4.617a.493.493 0 0 0 .74.424l12.654-7.303a1.639 1.639 0 0 0 .819-1.42V6.162a1.652 1.652 0 0 0-.143-.662z"/></g>
<text x="954" y="208" font-size="14" font-weight="700" fill="#0f172a">Dialogflow</text>
<text x="954" y="229" font-size="13" fill="#475569">AI 챗봇 의도 분석</text>
<rect x="894" y="246" width="268" height="52" rx="9" fill="#ffffff" stroke="#cbd5e1" filter="url(#sh)"/>
<rect x="894" y="246" width="4.5" height="52" rx="2" fill="#FFCD00"/>
<g transform="translate(909.0,256.0) scale(1.3333)" fill="#3C1E1E"><path d="M22.125 0H1.875C.8394 0 0 .8394 0 1.875v20.25C0 23.1606.8394 24 1.875 24h20.25C23.1606 24 24 23.1606 24 22.125V1.875C24 .8394 23.1606 0 22.125 0zM12 18.75c-.591 0-1.1697-.0413-1.7317-.1209-.5626.3965-3.813 2.6797-4.1198 2.7225 0 0-.1258.0489-.2328-.0141s-.0876-.2282-.0876-.2282c.0322-.2198.8426-3.0183.992-3.5333-2.7452-1.36-4.5701-3.7686-4.5701-6.5135C2.25 6.8168 6.6152 3.375 12 3.375s9.75 3.4418 9.75 7.6875c0 4.2457-4.3652 7.6875-9.75 7.6875zM8.0496 9.8672h-.8777v3.3417c0 .2963-.2523.5372-.5625.5372s-.5625-.2409-.5625-.5372V9.8672h-.8777c-.3044 0-.552-.2471-.552-.5508s.2477-.5508.552-.5508h2.8804c.3044 0 .552.2471.552.5508s-.2477.5508-.552.5508zm10.9879 2.9566a.558.558 0 0 1 .108.4167.5588.5588 0 0 1-.2183.371.5572.5572 0 0 1-.3383.1135.558.558 0 0 1-.4493-.2236l-1.3192-1.7479-.1952.1952v1.2273a.5635.5635 0 0 1-.5627.5628.563.563 0 0 1-.5625-.5625V9.3281c0-.3102.2523-.5625.5625-.5625s.5625.2523.5625.5625v1.209l1.5694-1.5694c.0807-.0807.1916-.1252.312-.1252.1404 0 .2814.0606.3871.1661.0985.0984.1573.2251.1654.3566.0082.1327-.036.2542-.1241.3425l-1.2818 1.2817 1.3845 1.8344zm-8.3502-3.5023c-.095-.2699-.3829-.5475-.7503-.5557-.3663.0083-.6542.2858-.749.5551l-1.3455 3.5415c-.1708.5305-.0217.7272.1333.7988a.8568.8568 0 0 0 .3576.0776c.2346 0 .4139-.0952.4678-.2481l.2787-.7297 1.7152.0001.2785.7292c.0541.1532.2335.2484.4681.2484a.8601.8601 0 0 0 .3576-.0775c.1551-.0713.3041-.2681.1329-.7999l-1.3449-3.5398zm-1.3116 2.4433l.5618-1.5961.5618 1.5961H9.3757zm5.9056 1.3836c0 .2843-.2418.5156-.5391.5156h-1.8047c-.2973 0-.5391-.2314-.5391-.5156V9.3281c0-.3102.2576-.5625.5742-.5625s.5742.2523.5742.5625v3.3047h1.1953c.2974 0 .5392.2314.5392.5156z"/></g>
<text x="954" y="268" font-size="14" font-weight="700" fill="#0f172a">KakaoPay</text>
<text x="954" y="289" font-size="13" fill="#475569">포인트 결제 · iamport</text>
<rect x="894" y="306" width="268" height="46" rx="9" fill="#ffffff" stroke="#cbd5e1" filter="url(#sh)"/>
<rect x="894" y="306" width="4.5" height="46" rx="2" fill="#64748b"/>
<text x="912" y="325" font-size="14" font-weight="700" fill="#0f172a">ipinfo</text>
<text x="912" y="346" font-size="13" fill="#475569">로그인 IP · 위치 조회</text>
<path d="M884,436 V570 a98,19 0 0 0 196,0 V436" fill="#FCE9E6" stroke="#C74634" stroke-width="1.5"/>
<ellipse cx="982" cy="436" rx="98" ry="19" fill="#FCE9E6" stroke="#C74634" stroke-width="1.5"/>
<g transform="translate(953.0,452.0) scale(2.4167)" fill="#C74634"><path d="M16.412 4.412h-8.82a7.588 7.588 0 0 0-.008 15.176h8.828a7.588 7.588 0 0 0 0-15.176zm-.193 12.502H7.786a4.915 4.915 0 0 1 0-9.828h8.433a4.914 4.914 0 1 1 0 9.828z"/></g>
<text x="982" y="544" text-anchor="middle" font-size="21" font-weight="700" fill="#a93226">Oracle / H2</text>
<text x="982" y="566" text-anchor="middle" font-size="13" fill="#a93226">운영 · 데모</text>
<path d="M254,300 C295,290 300,210 328,198" fill="none" stroke="#475569" stroke-width="1.6" marker-end="url(#a)"/>
<circle cx="292" cy="250" r="13" fill="#6DB33F"/><text x="292" y="255" text-anchor="middle" font-size="14" font-weight="700" fill="#fff">1</text>
<text x="266" y="215" font-size="12.5" fill="#475569">HTTPS · Ajax</text>
<line x1="566" y1="238" x2="566" y2="260" stroke="#475569" stroke-width="1.6" marker-end="url(#a)"/>
<circle cx="594" cy="249" r="13" fill="#6DB33F"/><text x="594" y="254" text-anchor="middle" font-size="14" font-weight="700" fill="#fff">2</text>
<line x1="566" y1="348" x2="566" y2="370" stroke="#475569" stroke-width="1.6" marker-end="url(#a)"/>
<circle cx="594" cy="359" r="13" fill="#6DB33F"/><text x="594" y="364" text-anchor="middle" font-size="14" font-weight="700" fill="#fff">3</text>
<line x1="566" y1="458" x2="566" y2="480" stroke="#475569" stroke-width="1.6" marker-end="url(#a)"/>
<circle cx="594" cy="469" r="13" fill="#6DB33F"/><text x="594" y="474" text-anchor="middle" font-size="14" font-weight="700" fill="#fff">4</text>
<path d="M776,520 C836,512 860,508 882,504" fill="none" stroke="#475569" stroke-width="1.6" marker-end="url(#a)"/>
<circle cx="838" cy="528" r="13" fill="#6DB33F"/><text x="838" y="533" text-anchor="middle" font-size="14" font-weight="700" fill="#fff">5</text>
<text x="792" y="548" font-size="12.5" fill="#475569">JPA / JDBC</text>
<path d="M776,408 C826,388 858,270 874,244" fill="none" stroke="#94a3b8" stroke-width="1.4" stroke-dasharray="6 4" marker-end="url(#ad)"/>
<text x="800" y="360" font-size="12" fill="#64748b">REST</text>
<path d="M150,470 C230,430 280,360 328,318" fill="none" stroke="#94a3b8" stroke-width="1.4" stroke-dasharray="6 4" marker-end="url(#ad)"/>
<line x1="40" y1="624" x2="1160" y2="624" stroke="#eef2f6" stroke-width="1.5"/>
<text x="40" y="651" font-size="13" fill="#475569"><tspan font-weight="700" fill="#334155">요청 흐름&#160;&#160;</tspan>① 클라이언트 요청&#160;→&#160;② 인증·인가&#160;→&#160;③ 비즈니스 로직(@Transactional)&#160;→&#160;④ 영속성&#160;→&#160;⑤ DB 조회·저장&#160;&#160;&#160;&#160;<tspan fill="#64748b">┄ 점선 = 외부 REST · 실시간</tspan></text>
</svg>
