<svg xmlns="http://www.w3.org/2000/svg" viewBox="0 0 900 520" font-family="'Segoe UI', Helvetica, Arial, sans-serif">
  <defs>
    <filter id="sh" x="-20%" y="-20%" width="140%" height="140%">
      <feDropShadow dx="0" dy="1.5" stdDeviation="2.5" flood-color="#0f172a" flood-opacity="0.13"/>
    </filter>
    <marker id="a" markerWidth="9" markerHeight="9" refX="7" refY="3" orient="auto"><path d="M0,0 L7,3 L0,6 z" fill="#475569"/></marker>
    <marker id="ad" markerWidth="9" markerHeight="9" refX="7" refY="3" orient="auto"><path d="M0,0 L7,3 L0,6 z" fill="#94a3b8"/></marker>
  </defs>
  <rect width="900" height="520" fill="#ffffff"/>

  <!-- ===================== CLIENT ===================== -->
  <rect x="40" y="98" width="172" height="108" rx="10" fill="#ffffff" stroke="#e2e8f0" filter="url(#sh)"/>
  <rect x="40" y="98" width="5" height="108" rx="2.5" fill="#94a3b8"/>
  <g transform="translate(62,124)" fill="none" stroke="#475569" stroke-width="1.6" stroke-linejoin="round">
    <rect x="0" y="0" width="24" height="16" rx="2"/><path d="M9,16 v4 M15,16 v4 M6,20 h12"/>
  </g>
  <text x="98" y="138" font-size="13.5" font-weight="700" fill="#0f172a">Web Browser</text>
  <text x="62" y="174" font-size="11" fill="#64748b">Thymeleaf · jQuery</text>
  <text x="62" y="191" font-size="11" fill="#64748b">SockJS · STOMP</text>

  <!-- flow 1 -->
  <line x1="212" y1="152" x2="278" y2="152" stroke="#94a3b8" stroke-width="1.6" marker-end="url(#a)"/>
  <circle cx="245" cy="152" r="9" fill="#6DB33F"/><text x="245" y="156" text-anchor="middle" font-size="11" font-weight="700" fill="#fff">1</text>

  <!-- ===================== SPRING BOOT APP ===================== -->
  <rect x="280" y="58" width="372" height="372" rx="12" fill="#ffffff" stroke="#cbd5e1" stroke-width="1.5" filter="url(#sh)"/>
  <g transform="translate(298,72) scale(1.15)"><path d="m23.693 10.7058-4.73-8.1844c-.4094-.7106-1.4166-1.2942-2.2402-1.2942H7.2725c-.819 0-1.8308.5836-2.2402 1.2942L.307 10.7058c-.4095.7106-.4095 1.873 0 2.5837l4.7252 8.189c.4094.7107 1.4166 1.2943 2.2402 1.2943h9.455c.819 0 1.826-.5836 2.2402-1.2942l4.7252-8.189c.4095-.7107.4095-1.8732 0-2.5838zM10.9763 5.7547c0-.5365.4377-.9742.9742-.9742s.9742.4377.9742.9742v5.8217c0 .5366-.4377.9742-.9742.9742s-.9742-.4376-.9742-.9742zm.9742 12.4294c-3.6427 0-6.6077-2.965-6.6077-6.6077.0047-2.0896.993-4.0521 2.6685-5.304a.8657.8657 0 0 1 1.2142.1788.8657.8657 0 0 1-.1788 1.2143c-2.1602 1.6048-2.612 4.6592-1.0072 6.8194 1.6049 2.1603 4.6593 2.612 6.8195 1.0072 1.2378-.9177 1.9673-2.372 1.9673-3.9157a4.8972 4.8972 0 0 0-1.9861-3.925c-.386-.2824-.466-.8284-.1836-1.2143.2824-.386.8283-.466 1.2143-.1835 1.6895 1.2471 2.6826 3.2238 2.6873 5.3228 0 3.6474-2.965 6.6077-6.6077 6.6077z" fill="#6DB33F"/></g>
  <text x="336" y="82" font-size="14" font-weight="700" fill="#0f172a">Spring Boot Application</text>
  <text x="336" y="99" font-size="10.5" fill="#94a3b8">Embedded Tomcat · :9091</text>
  <line x1="296" y1="112" x2="636" y2="112" stroke="#eef2f6" stroke-width="1.5"/>

  <!-- Security -->
  <rect x="304" y="124" width="324" height="56" rx="8" fill="#ffffff" stroke="#e2e8f0" filter="url(#sh)"/>
  <rect x="304" y="124" width="4" height="56" rx="2" fill="#6DB33F"/>
  <g transform="translate(320,141)" fill="none" stroke="#475569" stroke-width="1.6" stroke-linejoin="round"><path d="M9,1 L17,3.5 V9 C17,13.5 9,17 9,17 C9,17 1,13.5 1,9 V3.5 Z"/><path d="M6,9 l2,2 l4,-4" stroke-width="1.5"/></g>
  <text x="352" y="148" font-size="13" font-weight="700" fill="#0f172a">Spring Security</text>
  <text x="352" y="166" font-size="10.5" fill="#64748b">Session → SecurityContext · 경로 인가</text>

  <line x1="466" y1="180" x2="466" y2="196" stroke="#475569" stroke-width="1.6" marker-end="url(#a)"/>
  <circle cx="492" cy="188" r="9" fill="#6DB33F"/><text x="492" y="192" text-anchor="middle" font-size="11" font-weight="700" fill="#fff">2</text>

  <!-- Controller -->
  <rect x="304" y="196" width="324" height="56" rx="8" fill="#ffffff" stroke="#e2e8f0" filter="url(#sh)"/>
  <rect x="304" y="196" width="4" height="56" rx="2" fill="#6DB33F"/>
  <g transform="translate(320,213)" fill="none" stroke="#475569" stroke-width="1.7" stroke-linecap="round" stroke-linejoin="round"><path d="M7,3 L1,9 L7,15 M13,3 L19,9 L13,15"/></g>
  <text x="352" y="220" font-size="13" font-weight="700" fill="#0f172a">Controller</text>
  <text x="352" y="238" font-size="10.5" fill="#64748b">Member · Board · Order · Event · Chat · Team</text>

  <line x1="466" y1="252" x2="466" y2="268" stroke="#475569" stroke-width="1.6" marker-end="url(#a)"/>
  <circle cx="492" cy="260" r="9" fill="#6DB33F"/><text x="492" y="264" text-anchor="middle" font-size="11" font-weight="700" fill="#fff">3</text>

  <!-- Service -->
  <rect x="304" y="268" width="324" height="56" rx="8" fill="#ffffff" stroke="#e2e8f0" filter="url(#sh)"/>
  <rect x="304" y="268" width="4" height="56" rx="2" fill="#6DB33F"/>
  <g transform="translate(320,285)" fill="none" stroke="#475569" stroke-width="1.6" stroke-linejoin="round"><path d="M6,2 H14 L18,9 L14,16 H6 L2,9 Z"/><circle cx="10" cy="9" r="2.4"/></g>
  <text x="352" y="292" font-size="13" font-weight="700" fill="#0f172a">Service</text>
  <text x="352" y="310" font-size="10.5" fill="#64748b">@Transactional · 비즈니스 로직</text>

  <line x1="466" y1="324" x2="466" y2="340" stroke="#475569" stroke-width="1.6" marker-end="url(#a)"/>
  <circle cx="492" cy="332" r="9" fill="#6DB33F"/><text x="492" y="336" text-anchor="middle" font-size="11" font-weight="700" fill="#fff">4</text>

  <!-- Repository -->
  <rect x="304" y="340" width="324" height="56" rx="8" fill="#ffffff" stroke="#e2e8f0" filter="url(#sh)"/>
  <rect x="304" y="340" width="4" height="56" rx="2" fill="#6DB33F"/>
  <g transform="translate(320,357)" fill="none" stroke="#475569" stroke-width="1.5"><ellipse cx="10" cy="3.5" rx="8" ry="3"/><path d="M2,3.5 V14.5 a8,3 0 0 0 16,0 V3.5"/><path d="M2,9 a8,3 0 0 0 16,0"/></g>
  <text x="352" y="364" font-size="13" font-weight="700" fill="#0f172a">Repository</text>
  <text x="352" y="382" font-size="10.5" fill="#64748b">Spring Data JPA</text>

  <!-- ===================== EXTERNAL APIS ===================== -->
  <rect x="690" y="228" width="184" height="96" rx="10" fill="#f8fafc" stroke="#cbd5e1" stroke-width="1.3" stroke-dasharray="5 4"/>
  <g transform="translate(706,242)" fill="none" stroke="#475569" stroke-width="1.5" stroke-linejoin="round"><path d="M5,15 a4,4 0 0 1 0.4,-8 a5,5 0 0 1 9.4,-0.6 a3.6,3.6 0 0 1 0.2,8.6 Z"/></g>
  <text x="730" y="251" font-size="12.5" font-weight="700" fill="#334155">External APIs</text>
  <text x="706" y="280" font-size="10.5" fill="#64748b">Dialogflow (챗봇)</text>
  <text x="706" y="297" font-size="10.5" fill="#64748b">iamport · KakaoPay (결제)</text>
  <text x="706" y="314" font-size="10.5" fill="#64748b">ipinfo (위치)</text>
  <line x1="628" y1="296" x2="688" y2="278" stroke="#94a3b8" stroke-width="1.4" stroke-dasharray="5 4" marker-end="url(#ad)"/>
  <text x="636" y="288" font-size="9.5" fill="#94a3b8">REST</text>

  <!-- ===================== DATABASE ===================== -->
  <line x1="628" y1="368" x2="700" y2="392" stroke="#475569" stroke-width="1.6" marker-end="url(#a)"/>
  <circle cx="664" cy="362" r="9" fill="#6DB33F"/><text x="664" y="366" text-anchor="middle" font-size="11" font-weight="700" fill="#fff">5</text>
  <path d="M706,372 V418 a64,12 0 0 0 128,0 V372" fill="#C74634" stroke="#a93226" stroke-width="1.2"/>
  <ellipse cx="770" cy="372" rx="64" ry="12" fill="#C74634" stroke="#a93226" stroke-width="1.2"/>
  <g transform="translate(744,388) scale(0.95)"><path d="M16.412 4.412h-8.82a7.588 7.588 0 0 0-.008 15.176h8.828a7.588 7.588 0 0 0 0-15.176zm-.193 12.502H7.786a4.915 4.915 0 0 1 0-9.828h8.433a4.914 4.914 0 1 1 0 9.828z" fill="#ffffff"/></g>
  <text x="770" y="416" text-anchor="middle" font-size="12.5" font-weight="700" fill="#ffffff">Oracle / H2</text>

  <!-- ===================== LEGEND ===================== -->
  <line x1="40" y1="462" x2="860" y2="462" stroke="#eef2f6" stroke-width="1.5"/>
  <text x="40" y="488" font-size="10.5" fill="#64748b"><tspan font-weight="700" fill="#475569">요청 흐름&#160;&#160;</tspan>① 클라이언트 요청&#160;&#160;→&#160;&#160;② 인증·인가&#160;&#160;→&#160;&#160;③ 비즈니스 로직(트랜잭션)&#160;&#160;→&#160;&#160;④ 영속성&#160;&#160;→&#160;&#160;⑤ DB 조회·저장</text>
</svg>
